# xmcd
#
# Track frame offsets:
#	150
#	11815
#	30575
#	42472
#	60877
#	78942
#	90602
#	104325
#	122535
#	139407
#	153890
#	170305
#	184842
#	200897
#	214310
#	231097
#
# Disc length: 3271 seconds
#
# Revision: 1
# Processed by: cddbd v1.5.2PL0 Copyright (c) Steve Scherf et al.
# Submitted via: audiograbber 1.82.02
#
DISCID=d50cc510
DTITLE=J.J. Barrie - No Charge
DYEAR=1996
DGENRE=Ballad
TTITLE0=Buenos dias señorita
TTITLE1=My son
TTITLE2=Where's The Reason
TTITLE3=I Just Fall In Love Again
TTITLE4=While The Feeling's Good
TTITLE5=It's Too Soon To Know
TTITLE6=Lady Singer Whit A Country Music Band
TTITLE7=I Love You
TTITLE8=No Charge
TTITLE9=Lucille I Get A Honey Of A Deal
TTITLE10=Husbans And Wives
TTITLE11=Sunday Morning Blues
TTITLE12=Rainbows In My Mind
TTITLE13=I Can't Sing Our Love Song
TTITLE14=At My Age
TTITLE15=The Very Thought Of Losing You
EXTD=
EXTT0=
EXTT1=
EXTT2=
EXTT3=
EXTT4=
EXTT5=
EXTT6=
EXTT7=
EXTT8=
EXTT9=
EXTT10=
EXTT11=
EXTT12=
EXTT13=
EXTT14=
EXTT15=
PLAYORDER=
